<?xml version="1.0" encoding="UTF-8" standalone="no" ?>
<!DOCTYPE svg PUBLIC "-//W3C//DTD SVG 1.1//EN" "http://www.w3.org/Graphics/SVG/1.1/DTD/svg11.dtd">
<svg xmlns="http://www.w3.org/2000/svg" xmlns:xlink="http://www.w3.org/1999/xlink" version="1.1" width="1080" height="1080" viewBox="0 0 1080 1080" xml:space="preserve">
<desc>Created with Fabric.js 5.2.4</desc>
<defs>
</defs>
<g transform="matrix(1 0 0 1 540 540)" id="94dde3ef-cfaa-4dec-b57b-b2a734c346e2"  >
<rect style="stroke: none; stroke-width: 1; stroke-dasharray: none; stroke-linecap: butt; stroke-dashoffset: 0; stroke-linejoin: miter; stroke-miterlimit: 4; fill: rgb(255,255,255); fill-rule: nonzero; opacity: 1; visibility: hidden;" vector-effect="non-scaling-stroke"  x="-540" y="-540" rx="0" ry="0" width="1080" height="1080" />
</g>
<g transform="matrix(1 0 0 1 540 540)" id="77b8feb0-ac80-47b4-bffa-f4af845119b6"  >
</g>
<g transform="matrix(1 0 0 1 540 540)"  >
<g style="" vector-effect="non-scaling-stroke"   >
		<g transform="matrix(1.63 0 0 1.63 0 0)"  >
<path style="stroke: none; stroke-width: 1; stroke-dasharray: none; stroke-linecap: butt; stroke-dashoffset: 0; stroke-linejoin: miter; stroke-miterlimit: 4; fill: rgb(255,255,255); fill-rule: nonzero; opacity: 1;" vector-effect="non-scaling-stroke"  transform=" translate(-244.74, -244.74)" d="M 487.823 468.675 L 487.823 122.27500000000003 C 487.823 113.97500000000004 483.623 106.67500000000004 476.423 103.57500000000003 L 252.723 1.5750000000000313 C 247.52300000000002 -0.5249999999999688 241.323 -0.5249999999999688 236.12300000000002 1.5750000000000313 L 12.42300000000003 103.57500000000003 C 5.12300000000003 106.67500000000003 1.0230000000000299 113.97500000000004 1.0230000000000299 122.27500000000003 L 1.0230000000000299 468.675 C 1.0230000000000299 480.075 10.42300000000003 489.475 21.82300000000003 489.475 C 33.22300000000003 489.475 42.62300000000003 480.07500000000005 42.62300000000003 468.675 L 42.62300000000003 135.77500000000003 L 246.52300000000002 43.17500000000004 L 449.32300000000004 135.77500000000003 L 449.32300000000004 468.675 C 449.32300000000004 480.075 458.723 489.475 470.12300000000005 489.475 C 481.5230000000001 489.475 491.023 480.175 487.823 468.675 z" stroke-linecap="round" />
</g>
		<g transform="matrix(1.63 0 0 1.63 2.1 -76.92)"  >
<path style="stroke: none; stroke-width: 1; stroke-dasharray: none; stroke-linecap: butt; stroke-dashoffset: 0; stroke-linejoin: miter; stroke-miterlimit: 4; fill: rgb(255,255,255); fill-rule: nonzero; opacity: 1;" vector-effect="non-scaling-stroke"  transform=" translate(-246.02, -197.68)" d="M 313.123 285.575 C 324.52299999999997 285.575 333.923 276.175 333.923 264.775 L 333.923 130.575 C 333.923 119.17499999999998 324.523 109.77499999999999 313.123 109.77499999999999 L 178.923 109.77499999999999 C 167.523 109.77499999999999 158.123 119.175 158.123 130.575 L 158.123 264.775 C 158.123 276.17499999999995 167.523 285.575 178.923 285.575 L 313.123 285.575 z M 199.723 152.475 L 292.323 152.475 L 292.323 245.075 L 199.72299999999998 245.075 L 199.72299999999998 152.475 z" stroke-linecap="round" />
</g>
		<g transform="matrix(1.63 0 0 1.63 -161.18 256.34)"  >
<path style="stroke: none; stroke-width: 1; stroke-dasharray: none; stroke-linecap: butt; stroke-dashoffset: 0; stroke-linejoin: miter; stroke-miterlimit: 4; fill: rgb(255,255,255); fill-rule: nonzero; opacity: 1;" vector-effect="non-scaling-stroke"  transform=" translate(-146.12, -401.58)" d="M 213.223 313.675 L 79.02300000000002 313.675 C 67.62300000000002 313.675 58.22300000000003 323.075 58.22300000000003 334.475 L 58.22300000000003 468.675 C 58.22300000000003 480.075 67.62300000000003 489.475 79.02300000000002 489.475 L 213.223 489.475 C 224.62300000000002 489.475 234.02300000000002 480.07500000000005 234.02300000000002 468.675 L 234.02300000000002 334.475 C 234.023 323.075 224.623 313.675 213.223 313.675 z M 192.423 448.975 L 99.82300000000001 448.975 L 99.82300000000001 356.375 L 192.423 356.375 L 192.423 448.975 z" stroke-linecap="round" />
</g>
		<g transform="matrix(1.63 0 0 1.63 165.22 256.34)"  >
<path style="stroke: none; stroke-width: 1; stroke-dasharray: none; stroke-linecap: butt; stroke-dashoffset: 0; stroke-linejoin: miter; stroke-miterlimit: 4; fill: rgb(255,255,255); fill-rule: nonzero; opacity: 1;" vector-effect="non-scaling-stroke"  transform=" translate(-345.82, -401.58)" d="M 412.923 313.675 L 278.723 313.675 C 267.32300000000004 313.675 257.923 323.075 257.923 334.475 L 257.923 468.675 C 257.923 480.075 267.323 489.475 278.723 489.475 L 412.923 489.475 C 424.323 489.475 433.723 480.07500000000005 433.723 468.675 L 433.723 334.475 C 433.723 323.075 424.423 313.675 412.923 313.675 z M 392.123 448.975 L 299.523 448.975 L 299.523 356.375 L 392.12300000000005 356.375 L 392.12300000000005 448.975 z" stroke-linecap="round" />
</g>
</g>
</g>
</svg>