<?xml version="1.0" encoding="UTF-8" standalone="no" ?>
<!DOCTYPE svg PUBLIC "-//W3C//DTD SVG 1.1//EN" "http://www.w3.org/Graphics/SVG/1.1/DTD/svg11.dtd">
<svg xmlns="http://www.w3.org/2000/svg" xmlns:xlink="http://www.w3.org/1999/xlink" version="1.1" width="1080" height="1080" viewBox="0 0 1080 1080" xml:space="preserve">
<desc>Created with Fabric.js 5.2.4</desc>
<defs>
</defs>
<g transform="matrix(1 0 0 1 540 540)" id="c6edc4cc-68b0-4d09-92f5-e03606df11e7"  >
<rect style="stroke: none; stroke-width: 1; stroke-dasharray: none; stroke-linecap: butt; stroke-dashoffset: 0; stroke-linejoin: miter; stroke-miterlimit: 4; fill: rgb(255,255,255); fill-rule: nonzero; opacity: 1; visibility: hidden;" vector-effect="non-scaling-stroke"  x="-540" y="-540" rx="0" ry="0" width="1080" height="1080" />
</g>
<g transform="matrix(1 0 0 1 540 540)" id="87c3d643-a7ba-43d8-a8df-7a6c957c8b90"  >
</g>
<g transform="matrix(1 0 0 1 540 540)"  >
<g style="" vector-effect="non-scaling-stroke"   >
		<g transform="matrix(2.03 0 0 2.03 0 0)"  >
<path style="stroke: none; stroke-width: 1; stroke-dasharray: none; stroke-linecap: butt; stroke-dashoffset: 0; stroke-linejoin: miter; stroke-miterlimit: 4; fill: rgb(255,255,255); fill-rule: nonzero; opacity: 1;" vector-effect="non-scaling-stroke"  transform=" translate(-197.43, -197.43)" d="M 339.559 348.062 L 339.555 348.062 L 227.93200000000002 348.016 C 221.281 348.009 214.966 345.49600000000004 210.60700000000003 341.12 C 206.99500000000003 337.497 205.01500000000001 332.86 205.02700000000002 328.067 L 205.07100000000003 312.517 C 205.07800000000003 310.10699999999997 207.03500000000003 308.15999999999997 209.44300000000004 308.15999999999997 C 209.44600000000003 308.15999999999997 209.45100000000005 308.15999999999997 209.45500000000004 308.15999999999997 C 211.87000000000003 308.167 213.82100000000003 310.131 213.81400000000005 312.54499999999996 L 213.77000000000004 328.092 C 213.76100000000005 331.239 215.41400000000004 333.56 216.79800000000003 334.95099999999996 C 219.53300000000004 337.695 223.59200000000004 339.27 227.93700000000004 339.275 L 339.55500000000006 339.32099999999997 L 339.5570000000001 339.32099999999997 C 343.3280000000001 339.32099999999997 346.8900000000001 337.83799999999997 349.5830000000001 335.145 C 352.2750000000001 332.45099999999996 353.7610000000001 328.888 353.7610000000001 325.115 L 353.7610000000001 209.281 C 353.7610000000001 199.745 355.03100000000006 186.637 357.1530000000001 181.213 C 359.4050000000001 175.46099999999998 368.1480000000001 165.608 375.2320000000001 159.25799999999998 L 382.6180000000001 152.63699999999997 C 385.1780000000001 150.34399999999997 386.3980000000001 147.76899999999998 386.0600000000001 145.38499999999996 C 385.7210000000001 143.00499999999997 383.8300000000001 140.87399999999997 380.7330000000001 139.38599999999997 L 212.28 58.439 C 204.229 54.573 190.624 54.573 182.575 58.439 L 14.125 139.383 C 11.028 140.871 9.138 142.99900000000002 8.799 145.37900000000002 C 8.463 147.757 9.684999999999999 150.329 12.247 152.62 L 19.542 159.143 C 26.632 165.485 35.393 175.352 37.667 181.149 C 39.813 186.608 41.092 199.74 41.092 209.28 L 41.092 325.11400000000003 C 41.092 328.88700000000006 42.577 332.45000000000005 45.269999999999996 335.14000000000004 C 47.961 337.82900000000006 51.519 339.31300000000005 55.288999999999994 339.31300000000005 C 55.291999999999994 339.31300000000005 55.294 339.31300000000005 55.297999999999995 339.31300000000005 L 166.922 339.30500000000006 C 166.927 339.30500000000006 166.933 339.30500000000006 166.936 339.30500000000006 C 171.20600000000002 339.30500000000006 175.205 337.7440000000001 177.91 335.02000000000004 C 179.337 333.58400000000006 181.033 331.17800000000005 181.007 327.88000000000005 L 180.886 312.03600000000006 C 180.86599999999999 309.62100000000004 182.809 307.64900000000006 185.222 307.63000000000005 C 185.234 307.63000000000005 185.246 307.63000000000005 185.257 307.63000000000005 C 187.656 307.63000000000005 189.609 309.5640000000001 189.62900000000002 311.96600000000007 L 189.75000000000003 327.81000000000006 C 189.78700000000003 332.73500000000007 187.78500000000003 337.4800000000001 184.11100000000002 341.18000000000006 C 179.776 345.54400000000004 173.51600000000002 348.04800000000006 166.94000000000003 348.04800000000006 C 166.93100000000004 348.04800000000006 166.92400000000004 348.04800000000006 166.91700000000003 348.04800000000006 L 55.299000000000035 348.05500000000006 C 55.296000000000035 348.05500000000006 55.290000000000035 348.05500000000006 55.287000000000035 348.05500000000006 C 49.18400000000003 348.05500000000006 43.430000000000035 345.6650000000001 39.086000000000034 341.32400000000007 C 34.741000000000035 336.9820000000001 32.34700000000004 331.22400000000005 32.34700000000004 325.11300000000006 L 32.34700000000004 209.28 C 32.34700000000004 198.818 30.859000000000037 187.74099999999999 29.527000000000037 184.342 C 28.229000000000035 181.036 21.415000000000035 172.55 13.711000000000036 165.657 L 6.416000000000036 159.132 C 1.6780000000000355 154.893 -0.6089999999999645 149.431 0.14100000000003554 144.147 C 0.8930000000000355 138.863 4.6090000000000355 134.253 10.337000000000035 131.50099999999998 L 178.78600000000006 50.55899999999998 C 189.23900000000006 45.53599999999999 205.61400000000006 45.53599999999999 216.06500000000005 50.55899999999998 L 384.51500000000004 131.503 C 390.242 134.254 393.95900000000006 138.863 394.713 144.14999999999998 C 395.46700000000004 149.43599999999998 393.18300000000005 154.89999999999998 388.451 159.14199999999997 L 381.065 165.76399999999995 C 373.366 172.66399999999996 366.573 181.12099999999995 365.293 184.39699999999996 C 363.973 187.76999999999995 362.50100000000003 198.81599999999997 362.50100000000003 209.27799999999996 L 362.50100000000003 325.11199999999997 C 362.50100000000003 331.22099999999995 360.10800000000006 336.979 355.76200000000006 341.323 C 351.423 345.67 345.666 348.062 339.559 348.062 z" stroke-linecap="round" />
</g>
		<g transform="matrix(2.03 0 0 2.03 0.01 126.33)"  >
<path style="stroke: none; stroke-width: 1; stroke-dasharray: none; stroke-linecap: butt; stroke-dashoffset: 0; stroke-linejoin: miter; stroke-miterlimit: 4; fill: rgb(255,255,255); fill-rule: nonzero; opacity: 1;" vector-effect="non-scaling-stroke"  transform=" translate(-197.43, -259.78)" d="M 277.863 271.145 L 170.327 271.145 L 170.327 226.55599999999998 C 170.327 221.254 174.642 216.939 179.944 216.939 L 230.652 216.939 C 235.95399999999998 216.939 240.26899999999998 221.254 240.26899999999998 226.55599999999998 L 240.26899999999998 244.041 C 240.26899999999998 246.456 242.22499999999997 248.413 244.64 248.413 C 247.055 248.413 249.011 246.45600000000002 249.011 244.041 L 249.011 226.55599999999998 C 249.011 216.432 240.776 208.19599999999997 230.652 208.19599999999997 L 179.944 208.19599999999997 C 169.82 208.19599999999997 161.584 216.43199999999996 161.584 226.55599999999998 L 161.584 271.145 L 116.99600000000001 271.145 C 106.87100000000001 271.145 98.63600000000001 279.38 98.63600000000001 289.50399999999996 L 98.63600000000001 306.98999999999995 C 98.63600000000001 309.40399999999994 100.593 311.36099999999993 103.00800000000001 311.36099999999993 C 105.42300000000002 311.36099999999993 107.38000000000001 309.40399999999994 107.38000000000001 306.98999999999995 L 107.38000000000001 289.50399999999996 C 107.38000000000001 284.20099999999996 111.69300000000001 279.88699999999994 116.99700000000001 279.88699999999994 L 277.865 279.88699999999994 C 283.169 279.88699999999994 287.482 284.20099999999996 287.482 289.50399999999996 L 287.482 306.98999999999995 C 287.482 309.40399999999994 289.439 311.36099999999993 291.85400000000004 311.36099999999993 C 294.26800000000003 311.36099999999993 296.225 309.40399999999994 296.225 306.98999999999995 L 296.225 289.50399999999996 C 296.224 279.38 287.987 271.145 277.863 271.145 z" stroke-linecap="round" />
</g>
</g>
</g>
</svg>